<svg xmlns="http://www.w3.org/2000/svg" width="19.188" height="21.73" viewBox="0 0 19.188 21.73">
    <g data-name="Group 51744">
        <g data-name="Group 51695">
            <g data-name="Group 51694">
                <path data-name="Path 60332" d="M68.759 168.882c-2.259 0-3.479-5.6-3.479-10.865s1.219-10.865 3.479-10.865 3.479 5.6 3.479 10.865-1.22 10.865-3.479 10.865zm0-21.015c-1.307 0-2.763 4.168-2.763 10.15s1.456 10.149 2.763 10.149 2.763-4.168 2.763-10.149-1.456-10.149-2.763-10.149z" transform="translate(-59.164 -147.152)" style="fill:#fdc00f"/>
                <path data-name="Path 60333" d="M65.169 172.536c-2.15 0-5.646-1.247-9.123-3.255a27.605 27.605 0 0 1-6.059-4.57c-1.565-1.651-2.122-2.991-1.612-3.875A2.156 2.156 0 0 1 50.4 160c2.15 0 5.646 1.247 9.123 3.255a27.592 27.592 0 0 1 6.058 4.57c1.565 1.651 2.122 2.991 1.612 3.874a2.156 2.156 0 0 1-2.024.837zM50.4 160.718c-.516 0-1.178.082-1.406.476-.321.556.244 1.687 1.512 3.025a26.876 26.876 0 0 0 5.9 4.443c3.374 1.948 6.733 3.159 8.765 3.159.516 0 1.178-.083 1.406-.477.321-.556-.244-1.687-1.512-3.024a26.86 26.86 0 0 0-5.9-4.443c-3.373-1.949-6.731-3.159-8.765-3.159z" transform="translate(-48.191 -155.404)" style="fill:#fdc00f"/>
                <path data-name="Path 60334" d="M50.4 172.536a2.156 2.156 0 0 1-2.025-.834c-1.129-1.957 3.109-5.812 7.671-8.445 3.477-2.008 6.973-3.255 9.123-3.255a2.155 2.155 0 0 1 2.025.834c.51.884-.047 2.224-1.612 3.875a27.611 27.611 0 0 1-6.058 4.57c-3.479 2.008-6.975 3.255-9.124 3.255zm14.768-11.818c-2.032 0-5.391 1.21-8.765 3.159-5.18 2.99-8.062 6.336-7.409 7.468.228.394.89.476 1.406.476 2.032 0 5.391-1.21 8.766-3.159a26.87 26.87 0 0 0 5.9-4.442c1.268-1.338 1.833-2.468 1.512-3.025-.232-.395-.895-.477-1.41-.477z" transform="translate(-48.189 -155.404)" style="fill:#fdc00f"/>
                <path data-name="Path 60335" d="M68.711 173.477a2.25 2.25 0 1 1 2.251 2.25 2.25 2.25 0 0 1-2.251-2.25z" transform="translate(-61.367 -162.612)" style="fill:#fff"/>
                <path data-name="Path 60336" d="M69.84 173.942a1.459 1.459 0 1 1 1.46 1.458 1.459 1.459 0 0 1-1.46-1.458z" transform="translate(-62.092 -163.418)" style="fill:#bebebe;opacity:.3"/>
                <path data-name="Path 60337" d="M55.355 159.209a1.056 1.056 0 1 1-1.056-1.056 1.056 1.056 0 0 1 1.056 1.056z" transform="translate(-51.435 -154.216)" style="fill:#fff"/>
                <path data-name="Path 60338" d="M66.95 192.133a1.056 1.056 0 1 1-1.056-1.056 1.056 1.056 0 0 1 1.056 1.056z" transform="translate(-58.88 -175.358)" style="fill:#fff"/>
                <path data-name="Path 60339" d="M86.093 160.719a1.056 1.056 0 1 1-1.056-1.056 1.056 1.056 0 0 1 1.056 1.056z" transform="translate(-71.173 -155.186)" style="fill:#fff"/>
                <path data-name="Path 60340" d="M85.89 160.755a.719.719 0 1 1-.719-.719.719.719 0 0 1 .719.719z" transform="translate(-71.475 -155.425)" style="fill:#bebebe;opacity:.3"/>
                <path data-name="Path 60341" d="M55.21 159.315a.719.719 0 1 1-.719-.719.719.719 0 0 1 .719.719z" transform="translate(-51.774 -154.501)" style="fill:#bebebe;opacity:.3"/>
                <path data-name="Path 60342" d="M66.649 192.329a.719.719 0 1 1-.719-.719.719.719 0 0 1 .719.719z" transform="translate(-59.12 -175.701)" style="fill:#bebebe;opacity:.3"/>
            </g>
        </g>
    </g>
</svg>
